<svg version="1.1" viewBox="0.0 0.0 600.0 371.0" fill="none" stroke="none" stroke-linecap="square" stroke-miterlimit="10" width="600" height="371" xmlns:xlink="http://www.w3.org/1999/xlink" xmlns="http://www.w3.org/2000/svg"><path fill="#f3f3f3" d="M0 0L600.0 0L600.0 371.0L0 371.0L0 0Z" fill-rule="nonzero"/><path stroke="#c0c0c0" stroke-width="1.0" stroke-linecap="butt" d="M189.5 61.5L189.5 289.5" fill-rule="nonzero"/><path stroke="#c0c0c0" stroke-width="1.0" stroke-linecap="butt" d="M291.5 61.5L291.5 289.5" fill-rule="nonzero"/><path stroke="#c0c0c0" stroke-width="1.0" stroke-linecap="butt" d="M394.5 61.5L394.5 289.5" fill-rule="nonzero"/><path stroke="#c0c0c0" stroke-width="1.0" stroke-linecap="butt" d="M497.5 61.5L497.5 289.5" fill-rule="nonzero"/><path stroke="#272727" stroke-width="1.0" stroke-linecap="butt" d="M91.5 289.5L581.5 289.5" fill-rule="nonzero"/><path stroke="#c0c0c0" stroke-width="1.0" stroke-linecap="butt" d="M91.5 213.5L581.5 213.5" fill-rule="nonzero"/><path stroke="#c0c0c0" stroke-width="1.0" stroke-linecap="butt" d="M91.5 137.5L581.5 137.5" fill-rule="nonzero"/><path stroke="#c0c0c0" stroke-width="1.0" stroke-linecap="butt" d="M91.5 61.5L581.5 61.5" fill-rule="nonzero"/><clipPath id="id_0"><path d="M91.55 61.916668L581.45 61.916668L581.45 289.45L91.55 289.45L91.55 61.916668Z" clip-rule="nonzero"/></clipPath><path fill="#26c6c6" fill-opacity="0.5019608" clip-path="url(#id_0)" d="M91.55 239.22423L96.70684 238.08046L101.863686 236.78664L107.02052 235.3246L112.17737 233.67448L117.33421 231.81468L122.49105 229.7218L127.647896 227.37083L132.80473 224.73528L137.96158 221.78745L143.11842 218.49893L148.27527 214.84122L153.4321 210.78644L158.58894 206.30858L163.74579 201.38478L168.90263 195.997L174.05948 190.13405L179.21631 183.79391L184.37315 176.9862L189.53 169.73506L194.68684 162.08171L199.84369 154.08717L205.00052 145.83427L210.15736 137.42897L215.31421 129.00052L220.47105 120.70014L225.6279 112.69784L230.78474 105.17732L235.94157 98.32894L241.09842 92.340935L246.25526 87.38952L251.41211 83.6286L256.56894 81.18003L261.7258 80.12541L266.88263 80.50048L272.03946 82.29249L277.19632 85.44115L282.35315 89.84289L287.51 95.35795L292.66684 101.81946L297.82367 109.04363L302.98053 116.839935L308.13736 125.02051L313.29422 133.40805L318.45105 141.8419L323.60788 150.18205L328.76474 158.3114L333.92157 166.13618L339.07843 173.58524L344.23526 180.60817L349.39212 187.17307L354.54895 193.26373L359.70578 198.87697L364.86264 204.01991L370.01947 208.70761L375.17633 212.96083L380.33316 216.80432L385.49 220.26517L390.64685 223.37172L395.80368 226.15251L400.96054 228.63567L406.11737 230.84828L411.2742 232.8161L416.43106 234.5633L421.5879 236.11232L426.74475 237.48392L431.90158 238.69702L437.0584 239.76888L442.21527 240.71509L447.3721 241.54977L452.52896 242.28557L457.6858 242.93379L462.84262 243.5046L467.99948 244.00697L473.1563 244.44896L478.31317 244.83768L483.47 245.17943L488.62683 245.47983L493.7837 245.7438L498.94052 245.97572L504.09738 246.17944L509.2542 246.35837L514.4111 246.51549L519.5679 246.65344L524.72473 246.77457L529.8816 246.88089L535.0384 246.97423L540.19525 247.05614L545.3521 247.12804L550.509 247.19113L555.6658 247.2465L560.82263 247.2951L565.9795 247.33774L571.1363 247.37515L576.29315 265.63367L576.29315 289.45L571.1363 289.45L565.9795 289.45L560.82263 289.45L555.6658 289.45L550.509 289.45L545.3521 289.45L540.19525 289.45L535.0384 289.45L529.8816 289.45L524.72473 289.45L519.5679 289.45L514.4111 289.45L509.2542 289.45L504.09738 289.45L498.94052 289.45L493.7837 289.45L488.62683 289.45L483.47 289.45L478.31317 289.45L473.1563 289.45L467.99948 289.45L462.84262 289.45L457.6858 289.45L452.52896 289.45L447.3721 289.45L442.21527 289.45L437.0584 289.45L431.90158 289.45L426.74475 289.45L421.5879 289.45L416.43106 289.45L411.2742 289.45L406.11737 289.45L400.96054 289.45L395.80368 289.45L390.64685 289.45L385.49 289.45L380.33316 289.45L375.17633 289.45L370.01947 289.45L364.86264 289.45L359.70578 289.45L354.54895 289.45L349.39212 289.45L344.23526 289.45L339.07843 289.45L333.92157 289.45L328.76474 289.45L323.60788 289.45L318.45105 289.45L313.29422 289.45L308.13736 289.45L302.98053 289.45L297.82367 289.45L292.66684 289.45L287.51 289.45L282.35315 289.45L277.19632 289.45L272.03946 289.45L266.88263 289.45L261.7258 289.45L256.56894 289.45L251.41211 289.45L246.25526 289.45L241.09842 289.45L235.94157 289.45L230.78474 289.45L225.6279 289.45L220.47105 289.45L215.31421 289.45L210.15736 289.45L205.00052 289.45L199.84369 289.45L194.68684 289.45L189.53 289.45L184.37315 289.45L179.21631 289.45L174.05948 289.45L168.90263 289.45L163.74579 289.45L158.58894 289.45L153.4321 289.45L148.27527 289.45L143.11842 289.45L137.96158 289.45L132.80473 289.45L127.647896 289.45L122.49105 289.45L117.33421 289.45L112.17737 289.45L107.02052 289.45L101.863686 289.45L96.70684 289.45L91.55 289.45Z" fill-rule="nonzero"/><path stroke="#26c6c6" stroke-width="2.0" stroke-linecap="butt" clip-path="url(#id_0)" d="M91.55 239.22423L96.70684 238.08046L101.863686 236.78664L107.02052 235.3246L112.17737 233.67448L117.33421 231.81468L122.49105 229.7218L127.647896 227.37083L132.80473 224.73528L137.96158 221.78745L143.11842 218.49893L148.27527 214.84122L153.4321 210.78644L158.58894 206.30858L163.74579 201.38478L168.90263 195.997L174.05948 190.13405L179.21631 183.79391L184.37315 176.9862L189.53 169.73506L194.68684 162.08171L199.84369 154.08717L205.00052 145.83427L210.15736 137.42897L215.31421 129.00052L220.47105 120.70014L225.6279 112.69784L230.78474 105.17732L235.94157 98.32894L241.09842 92.340935L246.25526 87.38952L251.41211 83.6286L256.56894 81.18003L261.7258 80.12541L266.88263 80.50048L272.03946 82.29249L277.19632 85.44115L282.35315 89.84289L287.51 95.35795L292.66684 101.81946L297.82367 109.04363L302.98053 116.839935L308.13736 125.02051L313.29422 133.40805L318.45105 141.8419L323.60788 150.18205L328.76474 158.3114L333.92157 166.13618L339.07843 173.58524L344.23526 180.60817L349.39212 187.17307L354.54895 193.26373L359.70578 198.87697L364.86264 204.01991L370.01947 208.70761L375.17633 212.96083L380.33316 216.80432L385.49 220.26517L390.64685 223.37172L395.80368 226.15251L400.96054 228.63567L406.11737 230.84828L411.2742 232.8161L416.43106 234.5633L421.5879 236.11232L426.74475 237.48392L431.90158 238.69702L437.0584 239.76888L442.21527 240.71509L447.3721 241.54977L452.52896 242.28557L457.6858 242.93379L462.84262 243.5046L467.99948 244.00697L473.1563 244.44896L478.31317 244.83768L483.47 245.17943L488.62683 245.47983L493.7837 245.7438L498.94052 245.97572L504.09738 246.17944L509.2542 246.35837L514.4111 246.51549L519.5679 246.65344L524.72473 246.77457L529.8816 246.88089L535.0384 246.97423L540.19525 247.05614L545.3521 247.12804L550.509 247.19113L555.6658 247.2465L560.82263 247.2951L565.9795 247.33774L571.1363 247.37515L576.29315 265.63367" fill-rule="nonzero"/><path fill="#000000" fill-opacity="0.0" clip-path="url(#id_0)" d="M94.55 239.22423C94.55 240.88109 93.206856 242.22423 91.55 242.22423C89.89314 242.22423 88.55 240.88109 88.55 239.22423C88.55 237.56737 89.89314 236.22423 91.55 236.22423C93.206856 236.22423 94.55 237.56737 94.55 239.22423Z" fill-rule="nonzero"/><path fill="#000000" fill-opacity="0.0" clip-path="url(#id_0)" d="M99.70684 238.08046C99.70684 239.73732 98.36369 241.08046 96.70684 241.08046C95.04999 241.08046 93.70684 239.73732 93.70684 238.08046C93.70684 236.42361 95.04999 235.08046 96.70684 235.08046C98.36369 235.08046 99.70684 236.42361 99.70684 238.08046Z" fill-rule="nonzero"/><path fill="#000000" fill-opacity="0.0" clip-path="url(#id_0)" d="M104.863686 236.78664C104.863686 238.44348 103.52054 239.78664 101.863686 239.78664C100.20683 239.78664 98.863686 238.44348 98.863686 236.78664C98.863686 235.12978 100.20683 233.78664 101.863686 233.78664C103.52054 233.78664 104.863686 235.12978 104.863686 236.78664Z" fill-rule="nonzero"/><path fill="#000000" fill-opacity="0.0" clip-path="url(#id_0)" d="M110.02052 235.3246C110.02052 236.98145 108.67738 238.3246 107.02052 238.3246C105.36367 238.3246 104.02052 236.98145 104.02052 235.3246C104.02052 233.66774 105.36367 232.3246 107.02052 232.3246C108.67738 232.3246 110.02052 233.66774 110.02052 235.3246Z" fill-rule="nonzero"/><path fill="#000000" fill-opacity="0.0" clip-path="url(#id_0)" d="M115.17737 233.67448C115.17737 235.33134 113.83422 236.67448 112.17737 236.67448C110.520515 236.67448 109.17737 235.33134 109.17737 233.67448C109.17737 232.01764 110.520515 230.67448 112.17737 230.67448C113.83422 230.67448 115.17737 232.01764 115.17737 233.67448Z" fill-rule="nonzero"/><path fill="#000000" fill-opacity="0.0" clip-path="url(#id_0)" d="M120.33421 231.81468C120.33421 233.47154 118.991066 234.81468 117.33421 234.81468C115.67735 234.81468 114.33421 233.47154 114.33421 231.81468C114.33421 230.15784 115.67735 228.81468 117.33421 228.81468C118.991066 228.81468 120.33421 230.15784 120.33421 231.81468Z" fill-rule="nonzero"/><path fill="#000000" fill-opacity="0.0" clip-path="url(#id_0)" d="M125.49105 229.7218C125.49105 231.37866 124.1479 232.7218 122.49105 232.7218C120.8342 232.7218 119.49105 231.37866 119.49105 229.7218C119.49105 228.06496 120.8342 226.7218 122.49105 226.7218C124.1479 226.7218 125.49105 228.06496 125.49105 229.7218Z" fill-rule="nonzero"/><path fill="#000000" fill-opacity="0.0" clip-path="url(#id_0)" d="M130.64789 227.37083C130.64789 229.0277 129.30475 230.37083 127.647896 230.37083C125.99104 230.37083 124.647896 229.0277 124.647896 227.37083C124.647896 225.71397 125.99104 224.37083 127.647896 224.37083C129.30475 224.37083 130.64789 225.71397 130.64789 227.37083Z" fill-rule="nonzero"/><path fill="#000000" fill-opacity="0.0" clip-path="url(#id_0)" d="M135.80473 224.73528C135.80473 226.39214 134.4616 227.73528 132.80473 227.73528C131.14789 227.73528 129.80473 226.39214 129.80473 224.73528C129.80473 223.07841 131.14789 221.73528 132.80473 221.73528C134.4616 221.73528 135.80473 223.07841 135.80473 224.73528Z" fill-rule="nonzero"/><path fill="#000000" fill-opacity="0.0" clip-path="url(#id_0)" d="M140.96158 221.78745C140.96158 223.4443 139.61844 224.78745 137.96158 224.78745C136.30472 224.78745 134.96158 223.4443 134.96158 221.78745C134.96158 220.1306 136.30472 218.78745 137.96158 218.78745C139.61844 218.78745 140.96158 220.1306 140.96158 221.78745Z" fill-rule="nonzero"/><path fill="#000000" fill-opacity="0.0" clip-path="url(#id_0)" d="M146.11842 218.49893C146.11842 220.15579 144.77527 221.49893 143.11842 221.49893C141.46156 221.49893 140.11842 220.15579 140.11842 218.49893C140.11842 216.84209 141.46156 215.49893 143.11842 215.49893C144.77527 215.49893 146.11842 216.84209 146.11842 218.49893Z" fill-rule="nonzero"/><path fill="#000000" fill-opacity="0.0" clip-path="url(#id_0)" d="M151.27527 214.84122C151.27527 216.49806 149.93211 217.84122 148.27527 217.84122C146.61841 217.84122 145.27527 216.49806 145.27527 214.84122C145.27527 213.18436 146.61841 211.84122 148.27527 211.84122C149.93211 211.84122 151.27527 213.18436 151.27527 214.84122Z" fill-rule="nonzero"/><path fill="#000000" fill-opacity="0.0" clip-path="url(#id_0)" d="M156.4321 210.78644C156.4321 212.44328 155.08896 213.78644 153.4321 213.78644C151.77525 213.78644 150.4321 212.44328 150.4321 210.78644C150.4321 209.12958 151.77525 207.78644 153.4321 207.78644C155.08896 207.78644 156.4321 209.12958 156.4321 210.78644Z" fill-rule="nonzero"/><path fill="#000000" fill-opacity="0.0" clip-path="url(#id_0)" d="M161.58894 206.30858C161.58894 207.96544 160.2458 209.30858 158.58894 209.30858C156.9321 209.30858 155.58894 207.96544 155.58894 206.30858C155.58894 204.65172 156.9321 203.30858 158.58894 203.30858C160.2458 203.30858 161.58894 204.65172 161.58894 206.30858Z" fill-rule="nonzero"/><path fill="#000000" fill-opacity="0.0" clip-path="url(#id_0)" d="M166.74579 201.38478C166.74579 203.04163 165.40265 204.38478 163.74579 204.38478C162.08893 204.38478 160.74579 203.04163 160.74579 201.38478C160.74579 199.72792 162.08893 198.38478 163.74579 198.38478C165.40265 198.38478 166.74579 199.72792 166.74579 201.38478Z" fill-rule="nonzero"/><path fill="#000000" fill-opacity="0.0" clip-path="url(#id_0)" d="M171.90263 195.997C171.90263 197.65385 170.55948 198.997 168.90263 198.997C167.24577 198.997 165.90263 197.65385 165.90263 195.997C165.90263 194.34013 167.24577 192.997 168.90263 192.997C170.55948 192.997 171.90263 194.34013 171.90263 195.997Z" fill-rule="nonzero"/><path fill="#000000" fill-opacity="0.0" clip-path="url(#id_0)" d="M177.05948 190.13405C177.05948 191.79091 175.71632 193.13405 174.05948 193.13405C172.40262 193.13405 171.05948 191.79091 171.05948 190.13405C171.05948 188.4772 172.40262 187.13405 174.05948 187.13405C175.71632 187.13405 177.05948 188.4772 177.05948 190.13405Z" fill-rule="nonzero"/><path fill="#000000" fill-opacity="0.0" clip-path="url(#id_0)" d="M182.21631 183.79391C182.21631 185.45076 180.87317 186.79391 179.21631 186.79391C177.55946 186.79391 176.21631 185.45076 176.21631 183.79391C176.21631 182.13705 177.55946 180.79391 179.21631 180.79391C180.87317 180.79391 182.21631 182.13705 182.21631 183.79391Z" fill-rule="nonzero"/><path fill="#000000" fill-opacity="0.0" clip-path="url(#id_0)" d="M187.37315 176.9862C187.37315 178.64307 186.03001 179.9862 184.37315 179.9862C182.71631 179.9862 181.37315 178.64307 181.37315 176.9862C181.37315 175.32936 182.71631 173.9862 184.37315 173.9862C186.03001 173.9862 187.37315 175.32936 187.37315 176.9862Z" fill-rule="nonzero"/><path fill="#000000" fill-opacity="0.0" clip-path="url(#id_0)" d="M192.53 169.73506C192.53 171.3919 191.18686 172.73506 189.53 172.73506C187.87314 172.73506 186.53 171.3919 186.53 169.73506C186.53 168.0782 187.87314 166.73506 189.53 166.73506C191.18686 166.73506 192.53 168.0782 192.53 169.73506Z" fill-rule="nonzero"/><path fill="#000000" fill-opacity="0.0" clip-path="url(#id_0)" d="M197.68684 162.08171C197.68684 163.73857 196.34369 165.08171 194.68684 165.08171C193.02998 165.08171 191.68684 163.73857 191.68684 162.08171C191.68684 160.42485 193.02998 159.08171 194.68684 159.08171C196.34369 159.08171 197.68684 160.42485 197.68684 162.08171Z" fill-rule="nonzero"/><path fill="#000000" fill-opacity="0.0" clip-path="url(#id_0)" d="M202.84369 154.08717C202.84369 155.74402 201.50053 157.08717 199.84369 157.08717C198.18683 157.08717 196.84369 155.74402 196.84369 154.08717C196.84369 152.43031 198.18683 151.08717 199.84369 151.08717C201.50053 151.08717 202.84369 152.43031 202.84369 154.08717Z" fill-rule="nonzero"/><path fill="#000000" fill-opacity="0.0" clip-path="url(#id_0)" d="M208.00052 145.83427C208.00052 147.49112 206.65738 148.83427 205.00052 148.83427C203.34367 148.83427 202.00052 147.49112 202.00052 145.83427C202.00052 144.17741 203.34367 142.83427 205.00052 142.83427C206.65738 142.83427 208.00052 144.17741 208.00052 145.83427Z" fill-rule="nonzero"/><path fill="#000000" fill-opacity="0.0" clip-path="url(#id_0)" d="M213.15736 137.42897C213.15736 139.08582 211.81422 140.42897 210.15736 140.42897C208.50052 140.42897 207.15736 139.08582 207.15736 137.42897C207.15736 135.77211 208.50052 134.42897 210.15736 134.42897C211.81422 134.42897 213.15736 135.77211 213.15736 137.42897Z" fill-rule="nonzero"/><path fill="#000000" fill-opacity="0.0" clip-path="url(#id_0)" d="M218.31421 129.00052C218.31421 130.65738 216.97107 132.00052 215.31421 132.00052C213.65736 132.00052 212.31421 130.65738 212.31421 129.00052C212.31421 127.34367 213.65736 126.00053 215.31421 126.00053C216.97107 126.00053 218.31421 127.34367 218.31421 129.00052Z" fill-rule="nonzero"/><path fill="#000000" fill-opacity="0.0" clip-path="url(#id_0)" d="M223.47105 120.70014C223.47105 122.357 222.12791 123.70014 220.47105 123.70014C218.8142 123.70014 217.47105 122.357 217.47105 120.70014C217.47105 119.04329 218.8142 117.70014 220.47105 117.70014C222.12791 117.70014 223.47105 119.04329 223.47105 120.70014Z" fill-rule="nonzero"/><path fill="#000000" fill-opacity="0.0" clip-path="url(#id_0)" d="M228.6279 112.69784C228.6279 114.3547 227.28474 115.69784 225.6279 115.69784C223.97104 115.69784 222.6279 114.3547 222.6279 112.69784C222.6279 111.040985 223.97104 109.69784 225.6279 109.69784C227.28474 109.69784 228.6279 111.040985 228.6279 112.69784Z" fill-rule="nonzero"/><path fill="#000000" fill-opacity="0.0" clip-path="url(#id_0)" d="M233.78474 105.17732C233.78474 106.834175 232.44159 108.17732 230.78474 108.17732C229.12788 108.17732 227.78474 106.834175 227.78474 105.17732C227.78474 103.52047 229.12788 102.17732 230.78474 102.17732C232.44159 102.17732 233.78474 103.52047 233.78474 105.17732Z" fill-rule="nonzero"/><path fill="#000000" fill-opacity="0.0" clip-path="url(#id_0)" d="M238.94157 98.32894C238.94157 99.985794 237.59843 101.32894 235.94157 101.32894C234.28473 101.32894 232.94157 99.985794 232.94157 98.32894C232.94157 96.67209 234.28473 95.32894 235.94157 95.32894C237.59843 95.32894 238.94157 96.67209 238.94157 98.32894Z" fill-rule="nonzero"/><path fill="#000000" fill-opacity="0.0" clip-path="url(#id_0)" d="M244.09842 92.340935C244.09842 93.99779 242.75528 95.340935 241.09842 95.340935C239.44157 95.340935 238.09842 93.99779 238.09842 92.340935C238.09842 90.68408 239.44157 89.340935 241.09842 89.340935C242.75528 89.340935 244.09842 90.68408 244.09842 92.340935Z" fill-rule="nonzero"/><path fill="#000000" fill-opacity="0.0" clip-path="url(#id_0)" d="M249.25526 87.38952C249.25526 89.04638 247.91212 90.38952 246.25526 90.38952C244.5984 90.38952 243.25526 89.04638 243.25526 87.38952C243.25526 85.732666 244.5984 84.38952 246.25526 84.38952C247.91212 84.38952 249.25526 85.732666 249.25526 87.38952Z" fill-rule="nonzero"/><path fill="#000000" fill-opacity="0.0" clip-path="url(#id_0)" d="M254.41211 83.6286C254.41211 85.28546 253.06895 86.6286 251.41211 86.6286C249.75525 86.6286 248.41211 85.28546 248.41211 83.6286C248.41211 81.97175 249.75525 80.6286 251.41211 80.6286C253.06895 80.6286 254.41211 81.97175 254.41211 83.6286Z" fill-rule="nonzero"/><path fill="#000000" fill-opacity="0.0" clip-path="url(#id_0)" d="M259.56894 81.18003C259.56894 82.83688 258.2258 84.18003 256.56894 84.18003C254.9121 84.18003 253.56895 82.83688 253.56895 81.18003C253.56895 79.52317 254.9121 78.18003 256.56894 78.18003C258.2258 78.18003 259.56894 79.52317 259.56894 81.18003Z" fill-rule="nonzero"/><path fill="#000000" fill-opacity="0.0" clip-path="url(#id_0)" d="M264.7258 80.12541C264.7258 81.78227 263.38263 83.12541 261.7258 83.12541C260.06894 83.12541 258.7258 81.78227 258.7258 80.12541C258.7258 78.46856 260.06894 77.12541 261.7258 77.12541C263.38263 77.12541 264.7258 78.46856 264.7258 80.12541Z" fill-rule="nonzero"/><path fill="#000000" fill-opacity="0.0" clip-path="url(#id_0)" d="M269.88263 80.50048C269.88263 82.15733 268.5395 83.50048 266.88263 83.50048C265.22577 83.50048 263.88263 82.15733 263.88263 80.50048C263.88263 78.84363 265.22577 77.50048 266.88263 77.50048C268.5395 77.50048 269.88263 78.84363 269.88263 80.50048Z" fill-rule="nonzero"/><path fill="#000000" fill-opacity="0.0" clip-path="url(#id_0)" d="M275.03946 82.29249C275.03946 83.94934 273.69632 85.29249 272.03946 85.29249C270.38263 85.29249 269.03946 83.94934 269.03946 82.29249C269.03946 80.63563 270.38263 79.29249 272.03946 79.29249C273.69632 79.29249 275.03946 80.63563 275.03946 82.29249Z" fill-rule="nonzero"/><path fill="#000000" fill-opacity="0.0" clip-path="url(#id_0)" d="M280.19632 85.44115C280.19632 87.098 278.85318 88.44115 277.19632 88.44115C275.53946 88.44115 274.19632 87.098 274.19632 85.44115C274.19632 83.784294 275.53946 82.44115 277.19632 82.44115C278.85318 82.44115 280.19632 83.784294 280.19632 85.44115Z" fill-rule="nonzero"/><path fill="#000000" fill-opacity="0.0" clip-path="url(#id_0)" d="M285.35315 89.84289C285.35315 91.49975 284.01 92.84289 282.35315 92.84289C280.6963 92.84289 279.35315 91.49975 279.35315 89.84289C279.35315 88.186035 280.6963 86.84289 282.35315 86.84289C284.01 86.84289 285.35315 88.186035 285.35315 89.84289Z" fill-rule="nonzero"/><path fill="#000000" fill-opacity="0.0" clip-path="url(#id_0)" d="M290.51 95.35795C290.51 97.0148 289.16684 98.35795 287.51 98.35795C285.85315 98.35795 284.51 97.0148 284.51 95.35795C284.51 93.701096 285.85315 92.35795 287.51 92.35795C289.16684 92.35795 290.51 93.701096 290.51 95.35795Z" fill-rule="nonzero"/><path fill="#000000" fill-opacity="0.0" clip-path="url(#id_0)" d="M295.66684 101.81946C295.66684 103.47632 294.3237 104.81946 292.66684 104.81946C291.00998 104.81946 289.66684 103.47632 289.66684 101.81946C289.66684 100.162605 291.00998 98.81946 292.66684 98.81946C294.3237 98.81946 295.66684 100.162605 295.66684 101.81946Z" fill-rule="nonzero"/><path fill="#000000" fill-opacity="0.0" clip-path="url(#id_0)" d="M300.82367 109.04363C300.82367 110.700485 299.48053 112.04363 297.82367 112.04363C296.16684 112.04363 294.82367 110.700485 294.82367 109.04363C294.82367 107.38677 296.16684 106.04363 297.82367 106.04363C299.48053 106.04363 300.82367 107.38677 300.82367 109.04363Z" fill-rule="nonzero"/><path fill="#000000" fill-opacity="0.0" clip-path="url(#id_0)" d="M305.98053 116.839935C305.98053 118.49679 304.6374 119.839935 302.98053 119.839935C301.32367 119.839935 299.98053 118.49679 299.98053 116.839935C299.98053 115.18308 301.32367 113.839935 302.98053 113.839935C304.6374 113.839935 305.98053 115.18308 305.98053 116.839935Z" fill-rule="nonzero"/><path fill="#000000" fill-opacity="0.0" clip-path="url(#id_0)" d="M311.13736 125.02051C311.13736 126.67736 309.79422 128.02051 308.13736 128.02051C306.4805 128.02051 305.13736 126.67736 305.13736 125.02051C305.13736 123.363655 306.4805 122.02051 308.13736 122.02051C309.79422 122.02051 311.13736 123.363655 311.13736 125.02051Z" fill-rule="nonzero"/><path fill="#000000" fill-opacity="0.0" clip-path="url(#id_0)" d="M316.29422 133.40805C316.29422 135.06491 314.95105 136.40805 313.29422 136.40805C311.63736 136.40805 310.29422 135.06491 310.29422 133.40805C310.29422 131.7512 311.63736 130.40805 313.29422 130.40805C314.95105 130.40805 316.29422 131.7512 316.29422 133.40805Z" fill-rule="nonzero"/><path fill="#000000" fill-opacity="0.0" clip-path="url(#id_0)" d="M321.45105 141.8419C321.45105 143.49875 320.1079 144.8419 318.45105 144.8419C316.7942 144.8419 315.45105 143.49875 315.45105 141.8419C315.45105 140.18504 316.7942 138.8419 318.45105 138.8419C320.1079 138.8419 321.45105 140.18504 321.45105 141.8419Z" fill-rule="nonzero"/><path fill="#000000" fill-opacity="0.0" clip-path="url(#id_0)" d="M326.60788 150.18205C326.60788 151.83891 325.26474 153.18205 323.60788 153.18205C321.95105 153.18205 320.60788 151.83891 320.60788 150.18205C320.60788 148.5252 321.95105 147.18205 323.60788 147.18205C325.26474 147.18205 326.60788 148.5252 326.60788 150.18205Z" fill-rule="nonzero"/><path fill="#000000" fill-opacity="0.0" clip-path="url(#id_0)" d="M331.76474 158.3114C331.76474 159.96826 330.4216 161.3114 328.76474 161.3114C327.10788 161.3114 325.76474 159.96826 325.76474 158.3114C325.76474 156.65456 327.10788 155.3114 328.76474 155.3114C330.4216 155.3114 331.76474 156.65456 331.76474 158.3114Z" fill-rule="nonzero"/><path fill="#000000" fill-opacity="0.0" clip-path="url(#id_0)" d="M336.92157 166.13618C336.92157 167.79305 335.57843 169.13618 333.92157 169.13618C332.2647 169.13618 330.92157 167.79305 330.92157 166.13618C330.92157 164.47934 332.2647 163.13618 333.92157 163.13618C335.57843 163.13618 336.92157 164.47934 336.92157 166.13618Z" fill-rule="nonzero"/><path fill="#000000" fill-opacity="0.0" clip-path="url(#id_0)" d="M342.07843 173.58524C342.07843 175.2421 340.7353 176.58524 339.07843 176.58524C337.42157 176.58524 336.07843 175.2421 336.07843 173.58524C336.07843 171.92838 337.42157 170.58524 339.07843 170.58524C340.7353 170.58524 342.07843 171.92838 342.07843 173.58524Z" fill-rule="nonzero"/><path fill="#000000" fill-opacity="0.0" clip-path="url(#id_0)" d="M347.23526 180.60817C347.23526 182.26503 345.89212 183.60817 344.23526 183.60817C342.5784 183.60817 341.23526 182.26503 341.23526 180.60817C341.23526 178.95132 342.5784 177.60817 344.23526 177.60817C345.89212 177.60817 347.23526 178.95132 347.23526 180.60817Z" fill-rule="nonzero"/><path fill="#000000" fill-opacity="0.0" clip-path="url(#id_0)" d="M352.39212 187.17307C352.39212 188.82993 351.04895 190.17307 349.39212 190.17307C347.73526 190.17307 346.39212 188.82993 346.39212 187.17307C346.39212 185.51622 347.73526 184.17307 349.39212 184.17307C351.04895 184.17307 352.39212 185.51622 352.39212 187.17307Z" fill-rule="nonzero"/><path fill="#000000" fill-opacity="0.0" clip-path="url(#id_0)" d="M357.54895 193.26373C357.54895 194.9206 356.2058 196.26373 354.54895 196.26373C352.8921 196.26373 351.54895 194.9206 351.54895 193.26373C351.54895 191.60687 352.8921 190.26373 354.54895 190.26373C356.2058 190.26373 357.54895 191.60687 357.54895 193.26373Z" fill-rule="nonzero"/><path fill="#000000" fill-opacity="0.0" clip-path="url(#id_0)" d="M362.70578 198.87697C362.70578 200.53383 361.36264 201.87697 359.70578 201.87697C358.04895 201.87697 356.70578 200.53383 356.70578 198.87697C356.70578 197.22012 358.04895 195.87697 359.70578 195.87697C361.36264 195.87697 362.70578 197.22012 362.70578 198.87697Z" fill-rule="nonzero"/><path fill="#000000" fill-opacity="0.0" clip-path="url(#id_0)" d="M367.86264 204.01991C367.86264 205.67677 366.5195 207.01991 364.86264 207.01991C363.20578 207.01991 361.86264 205.67677 361.86264 204.01991C361.86264 202.36307 363.20578 201.01991 364.86264 201.01991C366.5195 201.01991 367.86264 202.36307 367.86264 204.01991Z" fill-rule="nonzero"/><path fill="#000000" fill-opacity="0.0" clip-path="url(#id_0)" d="M373.01947 208.70761C373.01947 210.36446 371.67633 211.70761 370.01947 211.70761C368.3626 211.70761 367.01947 210.36446 367.01947 208.70761C367.01947 207.05075 368.3626 205.70761 370.01947 205.70761C371.67633 205.70761 373.01947 207.05075 373.01947 208.70761Z" fill-rule="nonzero"/><path fill="#000000" fill-opacity="0.0" clip-path="url(#id_0)" d="M378.17633 212.96083C378.17633 214.61769 376.83316 215.96083 375.17633 215.96083C373.51947 215.96083 372.17633 214.61769 372.17633 212.96083C372.17633 211.30399 373.51947 209.96083 375.17633 209.96083C376.83316 209.96083 378.17633 211.30399 378.17633 212.96083Z" fill-rule="nonzero"/><path fill="#000000" fill-opacity="0.0" clip-path="url(#id_0)" d="M383.33316 216.80432C383.33316 218.46117 381.99002 219.80432 380.33316 219.80432C378.6763 219.80432 377.33316 218.46117 377.33316 216.80432C377.33316 215.14746 378.6763 213.80432 380.33316 213.80432C381.99002 213.80432 383.33316 215.14746 383.33316 216.80432Z" fill-rule="nonzero"/><path fill="#000000" fill-opacity="0.0" clip-path="url(#id_0)" d="M388.49 220.26517C388.49 221.92203 387.14685 223.26517 385.49 223.26517C383.83316 223.26517 382.49 221.92203 382.49 220.26517C382.49 218.6083 383.83316 217.26517 385.49 217.26517C387.14685 217.26517 388.49 218.6083 388.49 220.26517Z" fill-rule="nonzero"/><path fill="#000000" fill-opacity="0.0" clip-path="url(#id_0)" d="M393.64685 223.37172C393.64685 225.02856 392.3037 226.37172 390.64685 226.37172C388.99 226.37172 387.64685 225.02856 387.64685 223.37172C387.64685 221.71486 388.99 220.37172 390.64685 220.37172C392.3037 220.37172 393.64685 221.71486 393.64685 223.37172Z" fill-rule="nonzero"/><path fill="#000000" fill-opacity="0.0" clip-path="url(#id_0)" d="M398.80368 226.15251C398.80368 227.80937 397.46054 229.15251 395.80368 229.15251C394.14682 229.15251 392.80368 227.80937 392.80368 226.15251C392.80368 224.49567 394.14682 223.15251 395.80368 223.15251C397.46054 223.15251 398.80368 224.49567 398.80368 226.15251Z" fill-rule="nonzero"/><path fill="#000000" fill-opacity="0.0" clip-path="url(#id_0)" d="M403.96054 228.63567C403.96054 230.29253 402.61737 231.63567 400.96054 231.63567C399.30368 231.63567 397.96054 230.29253 397.96054 228.63567C397.96054 226.97882 399.30368 225.63567 400.96054 225.63567C402.61737 225.63567 403.96054 226.97882 403.96054 228.63567Z" fill-rule="nonzero"/><path fill="#000000" fill-opacity="0.0" clip-path="url(#id_0)" d="M409.11737 230.84828C409.11737 232.50514 407.77423 233.84828 406.11737 233.84828C404.4605 233.84828 403.11737 232.50514 403.11737 230.84828C403.11737 229.19142 404.4605 227.84828 406.11737 227.84828C407.77423 227.84828 409.11737 229.19142 409.11737 230.84828Z" fill-rule="nonzero"/><path fill="#000000" fill-opacity="0.0" clip-path="url(#id_0)" d="M414.2742 232.8161C414.2742 234.47295 412.93106 235.8161 411.2742 235.8161C409.61737 235.8161 408.2742 234.47295 408.2742 232.8161C408.2742 231.15924 409.61737 229.8161 411.2742 229.8161C412.93106 229.8161 414.2742 231.15924 414.2742 232.8161Z" fill-rule="nonzero"/><path fill="#000000" fill-opacity="0.0" clip-path="url(#id_0)" d="M419.43106 234.5633C419.43106 236.22014 418.08792 237.5633 416.43106 237.5633C414.7742 237.5633 413.43106 236.22014 413.43106 234.5633C413.43106 232.90643 414.7742 231.5633 416.43106 231.5633C418.08792 231.5633 419.43106 232.90643 419.43106 234.5633Z" fill-rule="nonzero"/><path fill="#000000" fill-opacity="0.0" clip-path="url(#id_0)" d="M424.5879 236.11232C424.5879 237.76918 423.24475 239.11232 421.5879 239.11232C419.93103 239.11232 418.5879 237.76918 418.5879 236.11232C418.5879 234.45547 419.93103 233.11232 421.5879 233.11232C423.24475 233.11232 424.5879 234.45547 424.5879 236.11232Z" fill-rule="nonzero"/><path fill="#000000" fill-opacity="0.0" clip-path="url(#id_0)" d="M429.74475 237.48392C429.74475 239.14078 428.40158 240.48392 426.74475 240.48392C425.0879 240.48392 423.74475 239.14078 423.74475 237.48392C423.74475 235.82706 425.0879 234.48392 426.74475 234.48392C428.40158 234.48392 429.74475 235.82706 429.74475 237.48392Z" fill-rule="nonzero"/><path fill="#000000" fill-opacity="0.0" clip-path="url(#id_0)" d="M434.90158 238.69702C434.90158 240.35387 433.55844 241.69702 431.90158 241.69702C430.24472 241.69702 428.90158 240.35387 428.90158 238.69702C428.90158 237.04016 430.24472 235.69702 431.90158 235.69702C433.55844 235.69702 434.90158 237.04016 434.90158 238.69702Z" fill-rule="nonzero"/><path fill="#000000" fill-opacity="0.0" clip-path="url(#id_0)" d="M440.0584 239.76888C440.0584 241.42572 438.71527 242.76888 437.0584 242.76888C435.40158 242.76888 434.0584 241.42572 434.0584 239.76888C434.0584 238.11201 435.40158 236.76888 437.0584 236.76888C438.71527 236.76888 440.0584 238.11201 440.0584 239.76888Z" fill-rule="nonzero"/><path fill="#000000" fill-opacity="0.0" clip-path="url(#id_0)" d="M445.21527 240.71509C445.21527 242.37195 443.87213 243.71509 442.21527 243.71509C440.5584 243.71509 439.21527 242.37195 439.21527 240.71509C439.21527 239.05824 440.5584 237.71509 442.21527 237.71509C443.87213 237.71509 445.21527 239.05824 445.21527 240.71509Z" fill-rule="nonzero"/><path fill="#000000" fill-opacity="0.0" clip-path="url(#id_0)" d="M450.3721 241.54977C450.3721 243.20663 449.02896 244.54977 447.3721 244.54977C445.71524 244.54977 444.3721 243.20663 444.3721 241.54977C444.3721 239.89293 445.71524 238.54977 447.3721 238.54977C449.02896 238.54977 450.3721 239.89293 450.3721 241.54977Z" fill-rule="nonzero"/><path fill="#000000" fill-opacity="0.0" clip-path="url(#id_0)" d="M455.52896 242.28557C455.52896 243.94241 454.1858 245.28557 452.52896 245.28557C450.8721 245.28557 449.52896 243.94241 449.52896 242.28557C449.52896 240.62871 450.8721 239.28557 452.52896 239.28557C454.1858 239.28557 455.52896 240.62871 455.52896 242.28557Z" fill-rule="nonzero"/><path fill="#000000" fill-opacity="0.0" clip-path="url(#id_0)" d="M460.6858 242.93379C460.6858 244.59065 459.34265 245.93379 457.6858 245.93379C456.02893 245.93379 454.6858 244.59065 454.6858 242.93379C454.6858 241.27695 456.02893 239.93379 457.6858 239.93379C459.34265 239.93379 460.6858 241.27695 460.6858 242.93379Z" fill-rule="nonzero"/><path fill="#000000" fill-opacity="0.0" clip-path="url(#id_0)" d="M465.84262 243.5046C465.84262 245.16144 464.49948 246.5046 462.84262 246.5046C461.1858 246.5046 459.84262 245.16144 459.84262 243.5046C459.84262 241.84773 461.1858 240.5046 462.84262 240.5046C464.49948 240.5046 465.84262 241.84773 465.84262 243.5046Z" fill-rule="nonzero"/><path fill="#000000" fill-opacity="0.0" clip-path="url(#id_0)" d="M470.99948 244.00697C470.99948 245.66382 469.65634 247.00697 467.99948 247.00697C466.34262 247.00697 464.99948 245.66382 464.99948 244.00697C464.99948 242.35011 466.34262 241.00697 467.99948 241.00697C469.65634 241.00697 470.99948 242.35011 470.99948 244.00697Z" fill-rule="nonzero"/><path fill="#000000" fill-opacity="0.0" clip-path="url(#id_0)" d="M476.1563 244.44896C476.1563 246.1058 474.81317 247.44896 473.1563 247.44896C471.49945 247.44896 470.1563 246.1058 470.1563 244.44896C470.1563 242.7921 471.49945 241.44896 473.1563 241.44896C474.81317 241.44896 476.1563 242.7921 476.1563 244.44896Z" fill-rule="nonzero"/><path fill="#000000" fill-opacity="0.0" clip-path="url(#id_0)" d="M481.31317 244.83768C481.31317 246.49452 479.97 247.83768 478.31317 247.83768C476.6563 247.83768 475.31317 246.49452 475.31317 244.83768C475.31317 243.18082 476.6563 241.83768 478.31317 241.83768C479.97 241.83768 481.31317 243.18082 481.31317 244.83768Z" fill-rule="nonzero"/><path fill="#000000" fill-opacity="0.0" clip-path="url(#id_0)" d="M486.47 245.17943C486.47 246.83629 485.12686 248.17943 483.47 248.17943C481.81314 248.17943 480.47 246.83629 480.47 245.17943C480.47 243.52258 481.81314 242.17943 483.47 242.17943C485.12686 242.17943 486.47 243.52258 486.47 245.17943Z" fill-rule="nonzero"/><path fill="#000000" fill-opacity="0.0" clip-path="url(#id_0)" d="M491.62683 245.47983C491.62683 247.13669 490.2837 248.47983 488.62683 248.47983C486.97 248.47983 485.62683 247.13669 485.62683 245.47983C485.62683 243.82297 486.97 242.47983 488.62683 242.47983C490.2837 242.47983 491.62683 243.82297 491.62683 245.47983Z" fill-rule="nonzero"/><path fill="#000000" fill-opacity="0.0" clip-path="url(#id_0)" d="M496.7837 245.7438C496.7837 247.40065 495.44055 248.7438 493.7837 248.7438C492.12683 248.7438 490.7837 247.40065 490.7837 245.7438C490.7837 244.08694 492.12683 242.7438 493.7837 242.7438C495.44055 242.7438 496.7837 244.08694 496.7837 245.7438Z" fill-rule="nonzero"/><path fill="#000000" fill-opacity="0.0" clip-path="url(#id_0)" d="M501.94052 245.97572C501.94052 247.63258 500.59738 248.97572 498.94052 248.97572C497.28366 248.97572 495.94052 247.63258 495.94052 245.97572C495.94052 244.31886 497.28366 242.97572 498.94052 242.97572C500.59738 242.97572 501.94052 244.31886 501.94052 245.97572Z" fill-rule="nonzero"/><path fill="#000000" fill-opacity="0.0" clip-path="url(#id_0)" d="M507.09738 246.17944C507.09738 247.8363 505.7542 249.17944 504.09738 249.17944C502.44052 249.17944 501.09738 247.8363 501.09738 246.17944C501.09738 244.5226 502.44052 243.17944 504.09738 243.17944C505.7542 243.17944 507.09738 244.5226 507.09738 246.17944Z" fill-rule="nonzero"/><path fill="#000000" fill-opacity="0.0" clip-path="url(#id_0)" d="M512.2542 246.35837C512.2542 248.01523 510.91107 249.35837 509.2542 249.35837C507.59735 249.35837 506.2542 248.01523 506.2542 246.35837C506.2542 244.7015 507.59735 243.35837 509.2542 243.35837C510.91107 243.35837 512.2542 244.7015 512.2542 246.35837Z" fill-rule="nonzero"/><path fill="#000000" fill-opacity="0.0" clip-path="url(#id_0)" d="M517.4111 246.51549C517.4111 248.17235 516.06793 249.51549 514.4111 249.51549C512.7542 249.51549 511.41104 248.17235 511.41104 246.51549C511.41104 244.85864 512.7542 243.51549 514.4111 243.51549C516.06793 243.51549 517.4111 244.85864 517.4111 246.51549Z" fill-rule="nonzero"/><path fill="#000000" fill-opacity="0.0" clip-path="url(#id_0)" d="M522.5679 246.65344C522.5679 248.3103 521.22473 249.65344 519.5679 249.65344C517.911 249.65344 516.5679 248.3103 516.5679 246.65344C516.5679 244.9966 517.911 243.65344 519.5679 243.65344C521.22473 243.65344 522.5679 244.9966 522.5679 246.65344Z" fill-rule="nonzero"/><path fill="#000000" fill-opacity="0.0" clip-path="url(#id_0)" d="M527.72473 246.77457C527.72473 248.43143 526.3816 249.77457 524.72473 249.77457C523.0679 249.77457 521.72473 248.43143 521.72473 246.77457C521.72473 245.1177 523.0679 243.77457 524.72473 243.77457C526.3816 243.77457 527.72473 245.1177 527.72473 246.77457Z" fill-rule="nonzero"/><path fill="#000000" fill-opacity="0.0" clip-path="url(#id_0)" d="M532.8816 246.88089C532.8816 248.53775 531.53845 249.88089 529.8816 249.88089C528.22473 249.88089 526.8816 248.53775 526.8816 246.88089C526.8816 245.22404 528.22473 243.88089 529.8816 243.88089C531.53845 243.88089 532.8816 245.22404 532.8816 246.88089Z" fill-rule="nonzero"/><path fill="#000000" fill-opacity="0.0" clip-path="url(#id_0)" d="M538.0384 246.97423C538.0384 248.63107 536.69525 249.97423 535.0384 249.97423C533.3816 249.97423 532.0384 248.63107 532.0384 246.97423C532.0384 245.31737 533.3816 243.97423 535.0384 243.97423C536.69525 243.97423 538.0384 245.31737 538.0384 246.97423Z" fill-rule="nonzero"/><path fill="#000000" fill-opacity="0.0" clip-path="url(#id_0)" d="M543.19525 247.05614C543.19525 248.713 541.8521 250.05614 540.19525 250.05614C538.5384 250.05614 537.19525 248.713 537.19525 247.05614C537.19525 245.39929 538.5384 244.05614 540.19525 244.05614C541.8521 244.05614 543.19525 245.39929 543.19525 247.05614Z" fill-rule="nonzero"/><path fill="#000000" fill-opacity="0.0" clip-path="url(#id_0)" d="M548.3521 247.12804C548.3521 248.7849 547.009 250.12804 545.3521 250.12804C543.69525 250.12804 542.3521 248.7849 542.3521 247.12804C542.3521 245.47119 543.69525 244.12804 545.3521 244.12804C547.009 244.12804 548.3521 245.47119 548.3521 247.12804Z" fill-rule="nonzero"/><path fill="#000000" fill-opacity="0.0" clip-path="url(#id_0)" d="M553.509 247.19113C553.509 248.84799 552.1658 250.19113 550.509 250.19113C548.8521 250.19113 547.509 248.84799 547.509 247.19113C547.509 245.53429 548.8521 244.19113 550.509 244.19113C552.1658 244.19113 553.509 245.53429 553.509 247.19113Z" fill-rule="nonzero"/><path fill="#000000" fill-opacity="0.0" clip-path="url(#id_0)" d="M558.6658 247.2465C558.6658 248.90337 557.32263 250.2465 555.6658 250.2465C554.0089 250.2465 552.6658 248.90337 552.6658 247.2465C552.6658 245.58966 554.0089 244.2465 555.6658 244.2465C557.32263 244.2465 558.6658 245.58966 558.6658 247.2465Z" fill-rule="nonzero"/><path fill="#000000" fill-opacity="0.0" clip-path="url(#id_0)" d="M563.82263 247.2951C563.82263 248.95195 562.4795 250.2951 560.82263 250.2951C559.1658 250.2951 557.82263 248.95195 557.82263 247.2951C557.82263 245.63824 559.1658 244.2951 560.82263 244.2951C562.4795 244.2951 563.82263 245.63824 563.82263 247.2951Z" fill-rule="nonzero"/><path fill="#000000" fill-opacity="0.0" clip-path="url(#id_0)" d="M568.9795 247.33774C568.9795 248.9946 567.63635 250.33774 565.9795 250.33774C564.32263 250.33774 562.9795 248.9946 562.9795 247.33774C562.9795 245.6809 564.32263 244.33774 565.9795 244.33774C567.63635 244.33774 568.9795 245.6809 568.9795 247.33774Z" fill-rule="nonzero"/><path fill="#000000" fill-opacity="0.0" clip-path="url(#id_0)" d="M574.1363 247.37515C574.1363 249.03201 572.79315 250.37515 571.1363 250.37515C569.47943 250.37515 568.1363 249.03201 568.1363 247.37515C568.1363 245.7183 569.47943 244.37515 571.1363 244.37515C572.79315 244.37515 574.1363 245.7183 574.1363 247.37515Z" fill-rule="nonzero"/><path fill="#000000" fill-opacity="0.0" clip-path="url(#id_0)" d="M579.29315 265.63367C579.29315 267.29053 577.95 268.63367 576.29315 268.63367C574.6363 268.63367 573.29315 267.29053 573.29315 265.63367C573.29315 263.9768 574.6363 262.63367 576.29315 262.63367C577.95 262.63367 579.29315 263.9768 579.29315 265.63367Z" fill-rule="nonzero"/><path fill="#000000" d="M312.6875 348.45L312.6875 336.9969L314.96875 336.9969L317.6875 345.10626Q318.0625 346.23126 318.23438 346.79376Q318.42188 346.16876 318.84375 344.96564L321.57812 336.9969L323.625 336.9969L323.625 348.45L322.15625 348.45L322.15625 338.85626L318.82812 348.45L317.46875 348.45L314.15625 338.7L314.15625 348.45L312.6875 348.45ZM325.03125 344.29376Q325.03125 341.9969 326.3125 340.8875Q327.39062 339.96564 328.92188 339.96564Q330.64062 339.96564 331.71875 341.09064Q332.8125 342.2 332.8125 344.1844Q332.8125 345.77814 332.32812 346.7Q331.84375 347.6219 330.92188 348.1375Q330.01562 348.6375 328.92188 348.6375Q327.1875 348.6375 326.10938 347.52814Q325.03125 346.40314 325.03125 344.29376ZM326.48438 344.29376Q326.48438 345.8875 327.17188 346.6844Q327.875 347.48126 328.92188 347.48126Q329.96875 347.48126 330.65625 346.6844Q331.35938 345.8875 331.35938 344.2469Q331.35938 342.71564 330.65625 341.91876Q329.96875 341.1219 328.92188 341.1219Q327.875 341.1219 327.17188 341.91876Q326.48438 342.7 326.48438 344.29376ZM334.5625 348.45L334.5625 340.15314L335.82812 340.15314L335.82812 341.325Q336.73438 339.96564 338.46875 339.96564Q339.21875 339.96564 339.84375 340.23126Q340.46875 340.4969 340.78125 340.9344Q341.09375 341.3719 341.21875 341.98126Q341.29688 342.3719 341.29688 343.34064L341.29688 348.45L339.89062 348.45L339.89062 343.40314Q339.89062 342.54376 339.71875 342.1219Q339.5625 341.6844 339.14062 341.4344Q338.73438 341.1844 338.17188 341.1844Q337.26562 341.1844 336.60938 341.7625Q335.96875 342.325 335.96875 343.91876L335.96875 348.45L334.5625 348.45ZM345.625 347.1844L345.82812 348.4344Q345.23438 348.5594 344.76562 348.5594Q344.0 348.5594 343.57812 348.325Q343.15625 348.075 342.98438 347.6844Q342.8125 347.27814 342.8125 346.0125L342.8125 341.2469L341.78125 341.2469L341.78125 340.15314L342.8125 340.15314L342.8125 338.09064L344.21875 337.2469L344.21875 340.15314L345.625 340.15314L345.625 341.2469L344.21875 341.2469L344.21875 346.09064Q344.21875 346.7 344.28125 346.8719Q344.35938 347.04376 344.53125 347.15314Q344.70312 347.2469 345.01562 347.2469Q345.25 347.2469 345.625 347.1844ZM346.5625 348.45L346.5625 336.9969L347.96875 336.9969L347.96875 341.10626Q348.95312 339.96564 350.45312 339.96564Q351.375 339.96564 352.04688 340.325Q352.73438 340.6844 353.01562 341.325Q353.3125 341.96564 353.3125 343.1844L353.3125 348.45L351.90625 348.45L351.90625 343.1844Q351.90625 342.1375 351.45312 341.65314Q351.0 341.16876 350.15625 341.16876Q349.53125 341.16876 348.98438 341.4969Q348.4375 341.825 348.20312 342.3875Q347.96875 342.9344 347.96875 343.90314L347.96875 348.45L346.5625 348.45ZM354.0 345.96564L355.39062 345.7469Q355.5 346.59064 356.03125 347.04376Q356.57812 347.48126 357.53125 347.48126Q358.5 347.48126 358.96875 347.09064Q359.4375 346.6844 359.4375 346.15314Q359.4375 345.6844 359.03125 345.40314Q358.73438 345.21564 357.59375 344.9344Q356.04688 344.54376 355.4375 344.2625Q354.84375 343.96564 354.53125 343.46564Q354.23438 342.96564 354.23438 342.35626Q354.23438 341.79376 354.48438 341.325Q354.73438 340.85626 355.17188 340.54376Q355.5 340.29376 356.0625 340.1375Q356.64062 339.96564 357.28125 339.96564Q358.26562 339.96564 359.0 340.2469Q359.73438 340.52814 360.07812 341.0125Q360.4375 341.48126 360.57812 342.29376L359.20312 342.48126Q359.10938 341.84064 358.65625 341.48126Q358.20312 341.1219 357.39062 341.1219Q356.42188 341.1219 356.0 341.45Q355.59375 341.7625 355.59375 342.1844Q355.59375 342.46564 355.76562 342.6844Q355.9375 342.90314 356.29688 343.0594Q356.51562 343.1375 357.54688 343.41876Q359.03125 343.8094 359.625 344.075Q360.21875 344.325 360.54688 344.8094Q360.89062 345.29376 360.89062 346.0125Q360.89062 346.71564 360.46875 347.34064Q360.0625 347.95 359.28125 348.29376Q358.51562 348.6375 357.54688 348.6375Q355.92188 348.6375 355.07812 347.96564Q354.23438 347.29376 354.0 345.96564Z" fill-rule="nonzero"/><path fill="#000000" d="M33.55001 206.68333L22.096888 206.68333L22.096888 205.16771L33.55001 205.16771L33.55001 206.68333ZM33.55001 204.12083L25.253138 204.12083L25.253138 202.85521L26.425013 202.85521Q25.065638 201.94896 25.065638 200.21458Q25.065638 199.46458 25.331263 198.83958Q25.596888 198.21458 26.034388 197.90208Q26.471888 197.58958 27.081263 197.46458Q27.471888 197.38646 28.440638 197.38646L33.55001 197.38646L33.55001 198.79271L28.503138 198.79271Q27.643763 198.79271 27.221888 198.96458Q26.784388 199.12083 26.534388 199.54271Q26.284388 199.94896 26.284388 200.51146Q26.284388 201.41771 26.862513 202.07396Q27.425013 202.71458 29.018763 202.71458L33.55001 202.71458L33.55001 204.12083ZM33.55001 195.79271L26.346888 195.79271L26.346888 197.02708L25.253138 197.02708L25.253138 195.79271L24.362513 195.79271Q23.534388 195.79271 23.128138 195.63646Q22.581263 195.43333 22.237513 194.93333Q21.893763 194.41771 21.893763 193.49583Q21.893763 192.90208 22.034388 192.18333L23.268763 192.38646Q23.190638 192.82396 23.190638 193.21458Q23.190638 193.85521 23.471888 194.12083Q23.737513 194.38646 24.487513 194.38646L25.253138 194.38646L25.253138 192.77708L26.346888 192.77708L26.346888 194.38646L33.55001 194.38646L33.55001 195.79271ZM33.55001 192.15208L22.096888 192.15208L22.096888 190.74583L33.55001 190.74583L33.55001 192.15208ZM32.51876 183.71458Q33.190636 184.49583 33.471886 185.21458Q33.73751 185.93333 33.73751 186.76146Q33.73751 188.13646 33.065636 188.87083Q32.39376 189.60521 31.362513 189.60521Q30.753138 189.60521 30.253138 189.32396Q29.737513 189.04271 29.440638 188.60521Q29.128138 188.15208 28.971888 187.58958Q28.862513 187.16771 28.768763 186.33958Q28.565638 184.63646 28.284388 183.82396Q27.987513 183.82396 27.909388 183.82396Q27.050013 183.82396 26.706263 184.21458Q26.221888 184.76146 26.221888 185.82396Q26.221888 186.80833 26.581263 187.29271Q26.925013 187.76146 27.800013 187.98021L27.612513 189.35521Q26.737513 189.16771 26.190638 188.74583Q25.643763 188.30833 25.362513 187.49583Q25.065638 186.68333 25.065638 185.62083Q25.065638 184.55833 25.315638 183.90208Q25.565638 183.23021 25.940638 182.91771Q26.315638 182.60521 26.893763 182.48021Q27.253138 182.40208 28.190638 182.40208L30.065638 182.40208Q32.034386 182.40208 32.55001 182.32396Q33.065636 182.23021 33.55001 181.96458L33.55001 183.43333Q33.11251 183.65208 32.51876 183.71458ZM29.378138 183.82396Q29.690638 184.58958 29.909388 186.12083Q30.034388 186.99583 30.190638 187.35521Q30.346888 187.71458 30.659388 187.91771Q30.956263 188.10521 31.315638 188.10521Q31.878138 188.10521 32.253136 187.68333Q32.628136 187.24583 32.628136 186.43333Q32.628136 185.62083 32.284386 184.99583Q31.925013 184.35521 31.300013 184.05833Q30.831263 183.82396 29.893763 183.82396L29.378138 183.82396ZM32.284386 177.05833L33.534386 176.85521Q33.659386 177.44896 33.659386 177.91771Q33.659386 178.68333 33.42501 179.10521Q33.17501 179.52708 32.784386 179.69896Q32.378136 179.87083 31.112513 179.87083L26.346888 179.87083L26.346888 180.90208L25.253138 180.90208L25.253138 179.87083L23.190638 179.87083L22.346888 178.46458L25.253138 178.46458L25.253138 177.05833L26.346888 177.05833L26.346888 178.46458L31.190638 178.46458Q31.800013 178.46458 31.971888 178.40208Q32.14376 178.32396 32.253136 178.15208Q32.346886 177.98021 32.346886 177.66771Q32.346886 177.43333 32.284386 177.05833ZM23.706263 176.12083L22.096888 176.12083L22.096888 174.71458L23.706263 174.71458L23.706263 176.12083ZM33.55001 176.12083L25.253138 176.12083L25.253138 174.71458L33.55001 174.71458L33.55001 176.12083ZM29.393763 172.65208Q27.096888 172.65208 25.987513 171.37083Q25.065638 170.29271 25.065638 168.76146Q25.065638 167.04271 26.190638 165.96458Q27.300013 164.87083 29.284388 164.87083Q30.878138 164.87083 31.800013 165.35521Q32.721886 165.83958 33.23751 166.76146Q33.73751 167.66771 33.73751 168.76146Q33.73751 170.49583 32.628136 171.57396Q31.503138 172.65208 29.393763 172.65208ZM29.393763 171.19896Q30.987513 171.19896 31.784388 170.51146Q32.58126 169.80833 32.58126 168.76146Q32.58126 167.71458 31.784388 167.02708Q30.987513 166.32396 29.346888 166.32396Q27.815638 166.32396 27.018763 167.02708Q26.221888 167.71458 26.221888 168.76146Q26.221888 169.80833 27.018763 170.51146Q27.800013 171.19896 29.393763 171.19896ZM33.55001 163.12083L25.253138 163.12083L25.253138 161.85521L26.425013 161.85521Q25.065638 160.94896 25.065638 159.21458Q25.065638 158.46458 25.331263 157.83958Q25.596888 157.21458 26.034388 156.90208Q26.471888 156.58958 27.081263 156.46458Q27.471888 156.38646 28.440638 156.38646L33.55001 156.38646L33.55001 157.79271L28.503138 157.79271Q27.643763 157.79271 27.221888 157.96458Q26.784388 158.12083 26.534388 158.54271Q26.284388 158.94896 26.284388 159.51146Q26.284388 160.41771 26.862513 161.07396Q27.425013 161.71458 29.018763 161.71458L33.55001 161.71458L33.55001 163.12083Z" fill-rule="nonzero"/><path fill="#000000" d="M62.05 289.21564Q62.05 287.6844 62.3625 286.7625Q62.675 285.825 63.284374 285.325Q63.909374 284.825 64.84688 284.825Q65.53438 284.825 66.05 285.10626Q66.58125 285.3875 66.925 285.91876Q67.26875 286.4344 67.45625 287.1844Q67.64375 287.9344 67.64375 289.21564Q67.64375 290.73126 67.33125 291.65314Q67.03438 292.575 66.40938 293.09064Q65.8 293.59064 64.84688 293.59064Q63.6125 293.59064 62.89375 292.7Q62.05 291.6375 62.05 289.21564ZM63.128124 289.21564Q63.128124 291.325 63.628124 292.02814Q64.12813 292.73126 64.84688 292.73126Q65.58125 292.73126 66.06563 292.02814Q66.56563 291.325 66.56563 289.21564Q66.56563 287.09064 66.06563 286.40314Q65.58125 285.7 64.83125 285.7Q64.1125 285.7 63.675 286.3094Q63.128124 287.09064 63.128124 289.21564ZM69.64375 293.45L69.64375 292.2469L70.84688 292.2469L70.84688 293.45L69.64375 293.45ZM72.05 289.21564Q72.05 287.6844 72.3625 286.7625Q72.675 285.825 73.28438 285.325Q73.90938 284.825 74.84688 284.825Q75.53438 284.825 76.05 285.10626Q76.58125 285.3875 76.925 285.91876Q77.26875 286.4344 77.45625 287.1844Q77.64375 287.9344 77.64375 289.21564Q77.64375 290.73126 77.33125 291.65314Q77.03438 292.575 76.40938 293.09064Q75.8 293.59064 74.84688 293.59064Q73.6125 293.59064 72.89375 292.7Q72.05 291.6375 72.05 289.21564ZM73.12813 289.21564Q73.12813 291.325 73.62813 292.02814Q74.12813 292.73126 74.84688 292.73126Q75.58125 292.73126 76.06563 292.02814Q76.56563 291.325 76.56563 289.21564Q76.56563 287.09064 76.06563 286.40314Q75.58125 285.7 74.83125 285.7Q74.1125 285.7 73.675 286.3094Q73.12813 287.09064 73.12813 289.21564ZM79.05 289.21564Q79.05 287.6844 79.3625 286.7625Q79.675 285.825 80.28438 285.325Q80.90938 284.825 81.84688 284.825Q82.53438 284.825 83.05 285.10626Q83.58125 285.3875 83.925 285.91876Q84.26875 286.4344 84.45625 287.1844Q84.64375 287.9344 84.64375 289.21564Q84.64375 290.73126 84.33125 291.65314Q84.03438 292.575 83.40938 293.09064Q82.8 293.59064 81.84688 293.59064Q80.6125 293.59064 79.89375 292.7Q79.05 291.6375 79.05 289.21564ZM80.12813 289.21564Q80.12813 291.325 80.62813 292.02814Q81.12813 292.73126 81.84688 292.73126Q82.58125 292.73126 83.06563 292.02814Q83.56563 291.325 83.56563 289.21564Q83.56563 287.09064 83.06563 286.40314Q82.58125 285.7 81.83125 285.7Q81.1125 285.7 80.675 286.3094Q80.12813 287.09064 80.12813 289.21564Z" fill-rule="nonzero"/><path fill="#000000" d="M62.05 213.37119Q62.05 211.83994 62.3625 210.91806Q62.675 209.98056 63.284374 209.48056Q63.909374 208.98056 64.84688 208.98056Q65.53438 208.98056 66.05 209.26181Q66.58125 209.54306 66.925 210.07431Q67.26875 210.58994 67.45625 211.33994Q67.64375 212.08994 67.64375 213.37119Q67.64375 214.88681 67.33125 215.80869Q67.03438 216.73056 66.40938 217.24619Q65.8 217.74619 64.84688 217.74619Q63.6125 217.74619 62.89375 216.85556Q62.05 215.79306 62.05 213.37119ZM63.128124 213.37119Q63.128124 215.48056 63.628124 216.18369Q64.12813 216.88681 64.84688 216.88681Q65.58125 216.88681 66.06563 216.18369Q66.56563 215.48056 66.56563 213.37119Q66.56563 211.24619 66.06563 210.55869Q65.58125 209.85556 64.83125 209.85556Q64.1125 209.85556 63.675 210.46494Q63.128124 211.24619 63.128124 213.37119ZM69.64375 217.60556L69.64375 216.40244L70.84688 216.40244L70.84688 217.60556L69.64375 217.60556ZM72.05 213.37119Q72.05 211.83994 72.3625 210.91806Q72.675 209.98056 73.28438 209.48056Q73.90938 208.98056 74.84688 208.98056Q75.53438 208.98056 76.05 209.26181Q76.58125 209.54306 76.925 210.07431Q77.26875 210.58994 77.45625 211.33994Q77.64375 212.08994 77.64375 213.37119Q77.64375 214.88681 77.33125 215.80869Q77.03438 216.73056 76.40938 217.24619Q75.8 217.74619 74.84688 217.74619Q73.6125 217.74619 72.89375 216.85556Q72.05 215.79306 72.05 213.37119ZM73.12813 213.37119Q73.12813 215.48056 73.62813 216.18369Q74.12813 216.88681 74.84688 216.88681Q75.58125 216.88681 76.06563 216.18369Q76.56563 215.48056 76.56563 213.37119Q76.56563 211.24619 76.06563 210.55869Q75.58125 209.85556 74.83125 209.85556Q74.1125 209.85556 73.675 210.46494Q73.12813 211.24619 73.12813 213.37119ZM79.05 215.35556L80.15938 215.26181Q80.28438 216.07431 80.72188 216.48056Q81.175 216.88681 81.81563 216.88681Q82.56563 216.88681 83.09688 216.30869Q83.62813 215.73056 83.62813 214.79306Q83.62813 213.88681 83.1125 213.37119Q82.6125 212.83994 81.78438 212.83994Q81.28438 212.83994 80.8625 213.07431Q80.45625 213.30869 80.22188 213.66806L79.2375 213.54306L80.06563 209.13681L84.34688 209.13681L84.34688 210.13681L80.90938 210.13681L80.45625 212.44931Q81.22188 211.90244 82.06563 211.90244Q83.19063 211.90244 83.95625 212.68369Q84.7375 213.46494 84.7375 214.69931Q84.7375 215.85556 84.06563 216.71494Q83.2375 217.74619 81.81563 217.74619Q80.64375 217.74619 79.89375 217.08994Q79.15938 216.43369 79.05 215.35556Z" fill-rule="nonzero"/><path fill="#000000" d="M62.05 137.52673Q62.05 135.99548 62.3625 135.07361Q62.675 134.13611 63.284374 133.63611Q63.909374 133.13611 64.84688 133.13611Q65.53438 133.13611 66.05 133.41736Q66.58125 133.69861 66.925 134.22986Q67.26875 134.74548 67.45625 135.49548Q67.64375 136.24548 67.64375 137.52673Q67.64375 139.04236 67.33125 139.96423Q67.03438 140.88611 66.40938 141.40173Q65.8 141.90173 64.84688 141.90173Q63.6125 141.90173 62.89375 141.01111Q62.05 139.94861 62.05 137.52673ZM63.128124 137.52673Q63.128124 139.63611 63.628124 140.33923Q64.12813 141.04236 64.84688 141.04236Q65.58125 141.04236 66.06563 140.33923Q66.56563 139.63611 66.56563 137.52673Q66.56563 135.40173 66.06563 134.71423Q65.58125 134.01111 64.83125 134.01111Q64.1125 134.01111 63.675 134.62048Q63.128124 135.40173 63.128124 137.52673ZM69.64375 141.76111L69.64375 140.55798L70.84688 140.55798L70.84688 141.76111L69.64375 141.76111ZM76.01875 141.76111L74.97188 141.76111L74.97188 135.04236Q74.58125 135.40173 73.95625 135.77673Q73.34688 136.13611 72.8625 136.30798L72.8625 135.29236Q73.7375 134.87048 74.39375 134.29236Q75.06563 133.69861 75.34688 133.13611L76.01875 133.13611L76.01875 141.76111ZM79.05 137.52673Q79.05 135.99548 79.3625 135.07361Q79.675 134.13611 80.28438 133.63611Q80.90938 133.13611 81.84688 133.13611Q82.53438 133.13611 83.05 133.41736Q83.58125 133.69861 83.925 134.22986Q84.26875 134.74548 84.45625 135.49548Q84.64375 136.24548 84.64375 137.52673Q84.64375 139.04236 84.33125 139.96423Q84.03438 140.88611 83.40938 141.40173Q82.8 141.90173 81.84688 141.90173Q80.6125 141.90173 79.89375 141.01111Q79.05 139.94861 79.05 137.52673ZM80.12813 137.52673Q80.12813 139.63611 80.62813 140.33923Q81.12813 141.04236 81.84688 141.04236Q82.58125 141.04236 83.06563 140.33923Q83.56563 139.63611 83.56563 137.52673Q83.56563 135.40173 83.06563 134.71423Q82.58125 134.01111 81.83125 134.01111Q81.1125 134.01111 80.675 134.62048Q80.12813 135.40173 80.12813 137.52673Z" fill-rule="nonzero"/><path fill="#000000" d="M62.05 61.68229Q62.05 60.15104 62.3625 59.229164Q62.675 58.291664 63.284374 57.791664Q63.909374 57.291664 64.84688 57.291664Q65.53438 57.291664 66.05 57.572914Q66.58125 57.854164 66.925 58.385414Q67.26875 58.90104 67.45625 59.65104Q67.64375 60.40104 67.64375 61.68229Q67.64375 63.197914 67.33125 64.11979Q67.03438 65.041664 66.40938 65.55729Q65.8 66.05729 64.84688 66.05729Q63.6125 66.05729 62.89375 65.166664Q62.05 64.104164 62.05 61.68229ZM63.128124 61.68229Q63.128124 63.791664 63.628124 64.49479Q64.12813 65.197914 64.84688 65.197914Q65.58125 65.197914 66.06563 64.49479Q66.56563 63.791664 66.56563 61.68229Q66.56563 59.55729 66.06563 58.86979Q65.58125 58.166664 64.83125 58.166664Q64.1125 58.166664 63.675 58.77604Q63.128124 59.55729 63.128124 61.68229ZM69.64375 65.916664L69.64375 64.71354L70.84688 64.71354L70.84688 65.916664L69.64375 65.916664ZM76.01875 65.916664L74.97188 65.916664L74.97188 59.197914Q74.58125 59.55729 73.95625 59.93229Q73.34688 60.291664 72.8625 60.46354L72.8625 59.447914Q73.7375 59.02604 74.39375 58.447914Q75.06563 57.854164 75.34688 57.291664L76.01875 57.291664L76.01875 65.916664ZM79.05 63.666664L80.15938 63.572914Q80.28438 64.385414 80.72188 64.791664Q81.175 65.197914 81.81563 65.197914Q82.56563 65.197914 83.09688 64.61979Q83.62813 64.041664 83.62813 63.104164Q83.62813 62.197914 83.1125 61.68229Q82.6125 61.15104 81.78438 61.15104Q81.28438 61.15104 80.8625 61.385414Q80.45625 61.61979 80.22188 61.979164L79.2375 61.854164L80.06563 57.447914L84.34688 57.447914L84.34688 58.447914L80.90938 58.447914L80.45625 60.760414Q81.22188 60.21354 82.06563 60.21354Q83.19063 60.21354 83.95625 60.99479Q84.7375 61.77604 84.7375 63.010414Q84.7375 64.166664 84.06563 65.02604Q83.2375 66.05729 81.81563 66.05729Q80.64375 66.05729 79.89375 65.40104Q79.15938 64.74479 79.05 63.666664Z" fill-rule="nonzero"/><path fill="#000000" d="M186.53006 306.45L185.48318 306.45L185.48318 299.73126Q185.09256 300.09064 184.46756 300.46564Q183.85818 300.825 183.37381 300.9969L183.37381 299.98126Q184.24881 299.5594 184.90506 298.98126Q185.57693 298.3875 185.85818 297.825L186.53006 297.825L186.53006 306.45ZM189.56131 302.21564Q189.56131 300.6844 189.87381 299.7625Q190.18631 298.825 190.79568 298.325Q191.42068 297.825 192.35818 297.825Q193.04568 297.825 193.56131 298.10626Q194.09256 298.3875 194.43631 298.91876Q194.78006 299.4344 194.96756 300.1844Q195.15506 300.9344 195.15506 302.21564Q195.15506 303.73126 194.84256 304.65314Q194.54568 305.575 193.92068 306.09064Q193.31131 306.59064 192.35818 306.59064Q191.12381 306.59064 190.40506 305.7Q189.56131 304.6375 189.56131 302.21564ZM190.63943 302.21564Q190.63943 304.325 191.13943 305.02814Q191.63943 305.73126 192.35818 305.73126Q193.09256 305.73126 193.57693 305.02814Q194.07693 304.325 194.07693 302.21564Q194.07693 300.09064 193.57693 299.40314Q193.09256 298.7 192.34256 298.7Q191.62381 298.7 191.18631 299.3094Q190.63943 300.09064 190.63943 302.21564Z" fill-rule="nonzero"/><path fill="#000000" d="M290.77634 305.4344L290.77634 306.45L285.08884 306.45Q285.08884 306.075 285.21384 305.71564Q285.4326 305.1375 285.90134 304.575Q286.3857 304.0125 287.29196 303.27814Q288.6982 302.1219 289.1826 301.45Q289.6826 300.77814 289.6826 300.1844Q289.6826 299.5594 289.22946 299.1375Q288.77634 298.7 288.0576 298.7Q287.29196 298.7 286.83884 299.15314Q286.3857 299.60626 286.3701 300.41876L285.29196 300.3094Q285.40134 299.09064 286.1201 298.46564Q286.85446 297.825 288.08884 297.825Q289.3232 297.825 290.04196 298.5125Q290.7607 299.2 290.7607 300.21564Q290.7607 300.73126 290.54196 301.23126Q290.33884 301.71564 289.83884 302.27814Q289.35446 302.825 288.22946 303.77814Q287.27634 304.575 286.9951 304.8719Q286.72946 305.15314 286.5576 305.4344L290.77634 305.4344ZM292.22946 302.21564Q292.22946 300.6844 292.54196 299.7625Q292.85446 298.825 293.46384 298.325Q294.08884 297.825 295.02634 297.825Q295.71384 297.825 296.22946 298.10626Q296.7607 298.3875 297.10446 298.91876Q297.4482 299.4344 297.6357 300.1844Q297.8232 300.9344 297.8232 302.21564Q297.8232 303.73126 297.5107 304.65314Q297.21384 305.575 296.58884 306.09064Q295.97946 306.59064 295.02634 306.59064Q293.79196 306.59064 293.0732 305.7Q292.22946 304.6375 292.22946 302.21564ZM293.3076 302.21564Q293.3076 304.325 293.8076 305.02814Q294.3076 305.73126 295.02634 305.73126Q295.7607 305.73126 296.2451 305.02814Q296.7451 304.325 296.7451 302.21564Q296.7451 300.09064 296.2451 299.40314Q295.7607 298.7 295.0107 298.7Q294.29196 298.7 293.85446 299.3094Q293.3076 300.09064 293.3076 302.21564Z" fill-rule="nonzero"/><path fill="#000000" d="M387.8976 304.1844L388.9601 304.04376Q389.132 304.9344 389.5695 305.34064Q390.007 305.73126 390.632 305.73126Q391.382 305.73126 391.8976 305.21564Q392.41324 304.7 392.41324 303.9344Q392.41324 303.21564 391.92886 302.7469Q391.4601 302.2625 390.72574 302.2625Q390.42886 302.2625 389.97574 302.3875L390.10074 301.45Q390.2101 301.46564 390.2726 301.46564Q390.9445 301.46564 391.47574 301.1219Q392.0226 300.7625 392.0226 300.02814Q392.0226 299.45 391.632 299.075Q391.24136 298.6844 390.61636 298.6844Q390.007 298.6844 389.5851 299.075Q389.17886 299.46564 389.0695 300.23126L388.007 300.04376Q388.1945 298.9969 388.882 298.41876Q389.5695 297.825 390.5851 297.825Q391.28824 297.825 391.882 298.1375Q392.47574 298.4344 392.78824 298.95Q393.10074 299.46564 393.10074 300.0594Q393.10074 300.60626 392.80386 301.075Q392.507 301.52814 391.92886 301.79376Q392.67886 301.96564 393.10074 302.52814Q393.5226 303.075 393.5226 303.91876Q393.5226 305.04376 392.6945 305.825Q391.882 306.60626 390.632 306.60626Q389.507 306.60626 388.757 305.9344Q388.007 305.2469 387.8976 304.1844ZM394.8976 302.21564Q394.8976 300.6844 395.2101 299.7625Q395.5226 298.825 396.132 298.325Q396.757 297.825 397.6945 297.825Q398.382 297.825 398.8976 298.10626Q399.42886 298.3875 399.7726 298.91876Q400.11636 299.4344 400.30386 300.1844Q400.49136 300.9344 400.49136 302.21564Q400.49136 303.73126 400.17886 304.65314Q399.882 305.575 399.257 306.09064Q398.6476 306.59064 397.6945 306.59064Q396.4601 306.59064 395.74136 305.7Q394.8976 304.6375 394.8976 302.21564ZM395.97574 302.21564Q395.97574 304.325 396.47574 305.02814Q396.97574 305.73126 397.6945 305.73126Q398.42886 305.73126 398.91324 305.02814Q399.41324 304.325 399.41324 302.21564Q399.41324 300.09064 398.91324 299.40314Q398.42886 298.7 397.67886 298.7Q396.9601 298.7 396.5226 299.3094Q395.97574 300.09064 395.97574 302.21564Z" fill-rule="nonzero"/><path fill="#000000" d="M493.94077 306.45L493.94077 304.3875L490.22202 304.3875L490.22202 303.41876L494.1439 297.85626L495.00327 297.85626L495.00327 303.41876L496.15952 303.41876L496.15952 304.3875L495.00327 304.3875L495.00327 306.45L493.94077 306.45ZM493.94077 303.41876L493.94077 299.5594L491.25327 303.41876L493.94077 303.41876ZM497.56577 302.21564Q497.56577 300.6844 497.87827 299.7625Q498.19077 298.825 498.80014 298.325Q499.42514 297.825 500.36264 297.825Q501.05014 297.825 501.56577 298.10626Q502.09702 298.3875 502.44077 298.91876Q502.78452 299.4344 502.97202 300.1844Q503.15952 300.9344 503.15952 302.21564Q503.15952 303.73126 502.84702 304.65314Q502.55014 305.575 501.92514 306.09064Q501.31577 306.59064 500.36264 306.59064Q499.12827 306.59064 498.40952 305.7Q497.56577 304.6375 497.56577 302.21564ZM498.6439 302.21564Q498.6439 304.325 499.1439 305.02814Q499.6439 305.73126 500.36264 305.73126Q501.09702 305.73126 501.5814 305.02814Q502.0814 304.325 502.0814 302.21564Q502.0814 300.09064 501.5814 299.40314Q501.09702 298.7 500.34702 298.7Q499.62827 298.7 499.19077 299.3094Q498.6439 300.09064 498.6439 302.21564Z" fill-rule="nonzero"/><path fill="#000000" d="M194.57812 37.55L194.57812 23.2375L204.9375 23.2375L204.9375 24.925L196.48438 24.925L196.48438 29.3L204.39062 29.3L204.39062 30.9875L196.48438 30.9875L196.48438 35.8625L205.26562 35.8625L205.26562 37.55L194.57812 37.55ZM216.9375 23.2375L218.82812 23.2375L218.82812 31.503124Q218.82812 33.659374 218.34375 34.940624Q217.85938 36.20625 216.57812 37.003124Q215.3125 37.8 213.23438 37.8Q211.21875 37.8 209.9375 37.1125Q208.67188 36.409374 208.125 35.096874Q207.57812 33.784374 207.57812 31.503124L207.57812 23.2375L209.46875 23.2375L209.46875 31.4875Q209.46875 33.3625 209.8125 34.253124Q210.15625 35.128124 211.0 35.6125Q211.84375 36.08125 213.07812 36.08125Q215.15625 36.08125 216.04688 35.14375Q216.9375 34.190624 216.9375 31.4875L216.9375 23.2375ZM220.46875 37.55L220.46875 23.2375L222.35938 23.2375L222.35938 35.8625L229.40625 35.8625L229.40625 37.55L220.46875 37.55ZM237.54688 37.55L237.54688 23.2375L242.46875 23.2375Q244.14062 23.2375 245.03125 23.440624Q246.25 23.721874 247.125 24.45625Q248.25 25.425 248.8125 26.909374Q249.375 28.39375 249.375 30.315624Q249.375 31.940624 249.0 33.20625Q248.625 34.45625 248.01562 35.284374Q247.42188 36.1125 246.71875 36.596874Q246.01562 37.065624 245.01562 37.315624Q244.01562 37.55 242.70312 37.55L237.54688 37.55ZM239.4375 35.8625L242.5 35.8625Q243.90625 35.8625 244.70312 35.596874Q245.51562 35.33125 246.0 34.846874Q246.67188 34.175 247.04688 33.05Q247.42188 31.909374 247.42188 30.284374Q247.42188 28.034374 246.6875 26.83125Q245.95312 25.628124 244.89062 25.221874Q244.14062 24.925 242.45312 24.925L239.4375 24.925L239.4375 35.8625ZM251.32812 25.253124L251.32812 23.2375L253.09375 23.2375L253.09375 25.253124L251.32812 25.253124ZM251.32812 37.55L251.32812 27.175L253.09375 27.175L253.09375 37.55L251.32812 37.55ZM254.60938 34.45625L256.35938 34.175Q256.5 35.221874 257.17188 35.784374Q257.84375 36.33125 259.04688 36.33125Q260.25 36.33125 260.82812 35.846874Q261.42188 35.346874 261.42188 34.690624Q261.42188 34.096874 260.90625 33.753124Q260.54688 33.51875 259.10938 33.159374Q257.17188 32.659374 256.42188 32.315624Q255.6875 31.95625 255.29688 31.33125Q254.90625 30.690624 254.90625 29.925Q254.90625 29.2375 255.21875 28.64375Q255.54688 28.05 256.09375 27.659374Q256.5 27.3625 257.20312 27.159374Q257.92188 26.940624 258.73438 26.940624Q259.95312 26.940624 260.875 27.3Q261.79688 27.64375 262.23438 28.253124Q262.67188 28.846874 262.84375 29.846874L261.125 30.08125Q261.0 29.284374 260.4375 28.846874Q259.875 28.39375 258.85938 28.39375Q257.64062 28.39375 257.125 28.8Q256.60938 29.190624 256.60938 29.721874Q256.60938 30.065624 256.82812 30.346874Q257.03125 30.628124 257.5 30.815624Q257.76562 30.909374 259.04688 31.253124Q260.92188 31.753124 261.65625 32.08125Q262.39062 32.39375 262.8125 33.003124Q263.23438 33.596874 263.23438 34.503124Q263.23438 35.378124 262.71875 36.159374Q262.20312 36.940624 261.23438 37.3625Q260.26562 37.784374 259.04688 37.784374Q257.03125 37.784374 255.96875 36.940624Q254.90625 36.096874 254.60938 34.45625ZM269.15625 35.971874L269.40625 37.534374Q268.67188 37.690624 268.07812 37.690624Q267.125 37.690624 266.59375 37.39375Q266.07812 37.08125 265.85938 36.596874Q265.64062 36.096874 265.64062 34.51875L265.64062 28.55L264.35938 28.55L264.35938 27.175L265.64062 27.175L265.64062 24.6125L267.39062 23.55L267.39062 27.175L269.15625 27.175L269.15625 28.55L267.39062 28.55L267.39062 34.6125Q267.39062 35.3625 267.48438 35.58125Q267.57812 35.784374 267.78125 35.925Q268.0 36.05 268.39062 36.05Q268.67188 36.05 269.15625 35.971874ZM271.29688 37.55L271.29688 27.175L272.875 27.175L272.875 28.753124Q273.48438 27.64375 274.0 27.3Q274.51562 26.940624 275.125 26.940624Q276.01562 26.940624 276.9375 27.503124L276.32812 29.14375Q275.6875 28.753124 275.04688 28.753124Q274.46875 28.753124 274.0 29.1125Q273.54688 29.45625 273.34375 30.065624Q273.0625 31.003124 273.0625 32.1125L273.0625 37.55L271.29688 37.55ZM278.32812 25.253124L278.32812 23.2375L280.09375 23.2375L280.09375 25.253124L278.32812 25.253124ZM278.32812 37.55L278.32812 27.175L280.09375 27.175L280.09375 37.55L278.32812 37.55ZM283.9375 37.55L282.3125 37.55L282.3125 23.2375L284.0625 23.2375L284.0625 28.346874Q285.1875 26.940624 286.90625 26.940624Q287.85938 26.940624 288.71875 27.33125Q289.57812 27.721874 290.125 28.425Q290.67188 29.1125 290.98438 30.096874Q291.29688 31.08125 291.29688 32.20625Q291.29688 34.878124 289.98438 36.33125Q288.67188 37.784374 286.82812 37.784374Q284.98438 37.784374 283.9375 36.253124L283.9375 37.55ZM283.92188 32.284374Q283.92188 34.14375 284.42188 34.9875Q285.26562 36.33125 286.67188 36.33125Q287.82812 36.33125 288.65625 35.33125Q289.5 34.33125 289.5 32.346874Q289.5 30.315624 288.6875 29.3625Q287.89062 28.39375 286.75 28.39375Q285.59375 28.39375 284.75 29.39375Q283.92188 30.39375 283.92188 32.284374ZM300.10938 37.55L300.10938 36.01875Q298.90625 37.784374 296.82812 37.784374Q295.90625 37.784374 295.10938 37.440624Q294.3125 37.08125 293.92188 36.55Q293.54688 36.01875 293.39062 35.2375Q293.28125 34.721874 293.28125 33.596874L293.28125 27.175L295.03125 27.175L295.03125 32.925Q295.03125 34.3 295.14062 34.784374Q295.3125 35.471874 295.84375 35.878124Q296.39062 36.26875 297.17188 36.26875Q297.96875 36.26875 298.65625 35.8625Q299.35938 35.45625 299.64062 34.76875Q299.9375 34.065624 299.9375 32.7375L299.9375 27.175L301.6875 27.175L301.6875 37.55L300.10938 37.55ZM307.15625 35.971874L307.40625 37.534374Q306.67188 37.690624 306.07812 37.690624Q305.125 37.690624 304.59375 37.39375Q304.07812 37.08125 303.85938 36.596874Q303.64062 36.096874 303.64062 34.51875L303.64062 28.55L302.35938 28.55L302.35938 27.175L303.64062 27.175L303.64062 24.6125L305.39062 23.55L305.39062 27.175L307.15625 27.175L307.15625 28.55L305.39062 28.55L305.39062 34.6125Q305.39062 35.3625 305.48438 35.58125Q305.57812 35.784374 305.78125 35.925Q306.0 36.05 306.39062 36.05Q306.67188 36.05 307.15625 35.971874ZM309.32812 25.253124L309.32812 23.2375L311.09375 23.2375L311.09375 25.253124L309.32812 25.253124ZM309.32812 37.55L309.32812 27.175L311.09375 27.175L311.09375 37.55L309.32812 37.55ZM312.67188 32.3625Q312.67188 29.4875 314.26562 28.096874Q315.60938 26.940624 317.53125 26.940624Q319.67188 26.940624 321.01562 28.346874Q322.375 29.753124 322.375 32.221874Q322.375 34.221874 321.78125 35.378124Q321.1875 36.51875 320.03125 37.159374Q318.89062 37.784374 317.53125 37.784374Q315.34375 37.784374 314.0 36.39375Q312.67188 34.9875 312.67188 32.3625ZM314.46875 32.3625Q314.46875 34.3625 315.32812 35.346874Q316.20312 36.33125 317.53125 36.33125Q318.84375 36.33125 319.70312 35.346874Q320.57812 34.346874 320.57812 32.3Q320.57812 30.378124 319.70312 29.39375Q318.82812 28.39375 317.53125 28.39375Q316.20312 28.39375 315.32812 29.39375Q314.46875 30.378124 314.46875 32.3625ZM324.3125 37.55L324.3125 27.175L325.90625 27.175L325.90625 28.659374Q327.04688 26.940624 329.20312 26.940624Q330.14062 26.940624 330.92188 27.284374Q331.71875 27.6125 332.10938 28.159374Q332.5 28.70625 332.65625 29.45625Q332.75 29.95625 332.75 31.175L332.75 37.55L330.98438 37.55L330.98438 31.2375Q330.98438 30.159374 330.78125 29.628124Q330.57812 29.096874 330.04688 28.784374Q329.53125 28.471874 328.82812 28.471874Q327.70312 28.471874 326.89062 29.190624Q326.07812 29.89375 326.07812 31.878124L326.07812 37.55L324.3125 37.55ZM340.85938 37.55L340.85938 23.2375L342.76562 23.2375L342.76562 37.55L340.85938 37.55ZM346.3125 37.55L346.3125 27.175L347.90625 27.175L347.90625 28.659374Q349.04688 26.940624 351.20312 26.940624Q352.14062 26.940624 352.92188 27.284374Q353.71875 27.6125 354.10938 28.159374Q354.5 28.70625 354.65625 29.45625Q354.75 29.95625 354.75 31.175L354.75 37.55L352.98438 37.55L352.98438 31.2375Q352.98438 30.159374 352.78125 29.628124Q352.57812 29.096874 352.04688 28.784374Q351.53125 28.471874 350.82812 28.471874Q349.70312 28.471874 348.89062 29.190624Q348.07812 29.89375 348.07812 31.878124L348.07812 37.55L346.3125 37.55ZM356.73438 37.55L356.73438 28.55L355.1875 28.55L355.1875 27.175L356.73438 27.175L356.73438 26.08125Q356.73438 25.034374 356.92188 24.51875Q357.17188 23.83125 357.8125 23.409374Q358.45312 22.9875 359.60938 22.9875Q360.35938 22.9875 361.25 23.159374L360.98438 24.690624Q360.4375 24.596874 359.95312 24.596874Q359.15625 24.596874 358.8125 24.940624Q358.48438 25.284374 358.48438 26.221874L358.48438 27.175L360.51562 27.175L360.51562 28.55L358.48438 28.55L358.48438 37.55L356.73438 37.55ZM362.28125 37.55L362.28125 23.2375L364.03125 23.2375L364.03125 37.55L362.28125 37.55ZM373.09375 36.26875Q372.10938 37.096874 371.20312 37.440624Q370.29688 37.784374 369.26562 37.784374Q367.5625 37.784374 366.64062 36.95625Q365.71875 36.1125 365.71875 34.815624Q365.71875 34.05 366.0625 33.425Q366.42188 32.8 366.98438 32.425Q367.54688 32.034374 368.25 31.83125Q368.76562 31.70625 369.8125 31.565624Q371.9375 31.315624 372.9375 30.971874Q372.95312 30.6125 372.95312 30.503124Q372.95312 29.440624 372.45312 28.9875Q371.78125 28.39375 370.45312 28.39375Q369.20312 28.39375 368.60938 28.83125Q368.03125 29.26875 367.75 30.378124L366.03125 30.14375Q366.26562 29.034374 366.79688 28.3625Q367.32812 27.675 368.34375 27.315624Q369.35938 26.940624 370.70312 26.940624Q372.03125 26.940624 372.85938 27.253124Q373.6875 27.565624 374.07812 28.05Q374.46875 28.51875 374.625 29.2375Q374.71875 29.690624 374.71875 30.8625L374.71875 33.20625Q374.71875 35.659374 374.82812 36.315624Q374.9375 36.95625 375.28125 37.55L373.4375 37.55Q373.17188 37.003124 373.09375 36.26875ZM372.9375 32.346874Q371.98438 32.7375 370.0625 33.003124Q368.98438 33.159374 368.53125 33.3625Q368.09375 33.55 367.84375 33.925Q367.59375 34.3 367.59375 34.76875Q367.59375 35.471874 368.125 35.940624Q368.65625 36.409374 369.6875 36.409374Q370.70312 36.409374 371.48438 35.971874Q372.28125 35.51875 372.65625 34.753124Q372.9375 34.14375 372.9375 32.9875L372.9375 32.346874ZM381.15625 35.971874L381.40625 37.534374Q380.67188 37.690624 380.07812 37.690624Q379.125 37.690624 378.59375 37.39375Q378.07812 37.08125 377.85938 36.596874Q377.64062 36.096874 377.64062 34.51875L377.64062 28.55L376.35938 28.55L376.35938 27.175L377.64062 27.175L377.64062 24.6125L379.39062 23.55L379.39062 27.175L381.15625 27.175L381.15625 28.55L379.39062 28.55L379.39062 34.6125Q379.39062 35.3625 379.48438 35.58125Q379.57812 35.784374 379.78125 35.925Q380.0 36.05 380.39062 36.05Q380.67188 36.05 381.15625 35.971874ZM383.32812 25.253124L383.32812 23.2375L385.09375 23.2375L385.09375 25.253124L383.32812 25.253124ZM383.32812 37.55L383.32812 27.175L385.09375 27.175L385.09375 37.55L383.32812 37.55ZM386.67188 32.3625Q386.67188 29.4875 388.26562 28.096874Q389.60938 26.940624 391.53125 26.940624Q393.67188 26.940624 395.01562 28.346874Q396.375 29.753124 396.375 32.221874Q396.375 34.221874 395.78125 35.378124Q395.1875 36.51875 394.03125 37.159374Q392.89062 37.784374 391.53125 37.784374Q389.34375 37.784374 388.0 36.39375Q386.67188 34.9875 386.67188 32.3625ZM388.46875 32.3625Q388.46875 34.3625 389.32812 35.346874Q390.20312 36.33125 391.53125 36.33125Q392.84375 36.33125 393.70312 35.346874Q394.57812 34.346874 394.57812 32.3Q394.57812 30.378124 393.70312 29.39375Q392.82812 28.39375 391.53125 28.39375Q390.20312 28.39375 389.32812 29.39375Q388.46875 30.378124 388.46875 32.3625ZM398.3125 37.55L398.3125 27.175L399.90625 27.175L399.90625 28.659374Q401.04688 26.940624 403.20312 26.940624Q404.14062 26.940624 404.92188 27.284374Q405.71875 27.6125 406.10938 28.159374Q406.5 28.70625 406.65625 29.45625Q406.75 29.95625 406.75 31.175L406.75 37.55L404.98438 37.55L404.98438 31.2375Q404.98438 30.159374 404.78125 29.628124Q404.57812 29.096874 404.04688 28.784374Q403.53125 28.471874 402.82812 28.471874Q401.70312 28.471874 400.89062 29.190624Q400.07812 29.89375 400.07812 31.878124L400.07812 37.55L398.3125 37.55Z" fill-rule="nonzero"/></svg>